<svg width="22" height="23" viewBox="0 0 22 23" fill="none" xmlns="http://www.w3.org/2000/svg">
<path d="M6.61695 14.5128H18.7619C20.1391 14.5128 21.2625 13.3893 21.2625 12.0122V6.90233C21.2625 6.8978 21.2625 6.88874 21.2625 6.88421C21.2625 6.87062 21.2625 6.86156 21.2625 6.84797C21.2625 6.83891 21.2625 6.82985 21.258 6.82079C21.258 6.81173 21.2534 6.79814 21.2534 6.78908C21.2534 6.78002 21.2489 6.77096 21.2489 6.7619C21.2444 6.75284 21.2444 6.74378 21.2399 6.73019C21.2353 6.72113 21.2353 6.71207 21.2308 6.70301C21.2263 6.69395 21.2263 6.68489 21.2217 6.67583C21.2172 6.66677 21.2127 6.65771 21.2081 6.64412C21.2036 6.63506 21.1991 6.626 21.1945 6.62147C21.19 6.61241 21.1855 6.60335 21.181 6.59429C21.1764 6.58523 21.1719 6.5807 21.1674 6.57164C21.1628 6.56258 21.1538 6.55352 21.1493 6.54446C21.1447 6.5354 21.1402 6.53087 21.1311 6.52181C21.1266 6.51275 21.1175 6.50822 21.113 6.49916C21.1085 6.4901 21.0994 6.48557 21.0949 6.47651C21.0904 6.46745 21.0813 6.46292 21.0768 6.45839C21.0677 6.44933 21.0632 6.4448 21.0541 6.43574C21.0451 6.43121 21.0405 6.42215 21.0315 6.41762C21.0224 6.41309 21.0133 6.40403 21.0043 6.3995C20.9952 6.39497 20.9907 6.39044 20.9816 6.38591C20.9726 6.38138 20.9635 6.37685 20.9545 6.36779C20.9454 6.36326 20.9363 6.35873 20.9273 6.3542C20.9182 6.34967 20.9092 6.34514 20.9001 6.34061C20.891 6.33608 20.882 6.33155 20.8729 6.32702C20.8639 6.32249 20.8548 6.32249 20.8457 6.31796C20.8367 6.31343 20.8231 6.3089 20.814 6.3089C20.805 6.3089 20.7959 6.30437 20.7914 6.30437C20.7778 6.29984 20.7687 6.29984 20.7551 6.29984C20.7506 6.29984 20.7461 6.29531 20.737 6.29531L5.34402 4.17073V2.0235C5.34402 2.00085 5.34402 1.9782 5.33949 1.96008C5.33949 1.95555 5.33949 1.95102 5.33496 1.94196C5.33496 1.92837 5.33043 1.91478 5.33043 1.90119C5.3259 1.8876 5.3259 1.87854 5.32137 1.86495C5.32137 1.85589 5.31684 1.85136 5.31684 1.8423C5.31231 1.82871 5.30778 1.81512 5.30325 1.80153C5.30325 1.797 5.29872 1.78794 5.29872 1.78341C5.29419 1.76982 5.28966 1.76076 5.2806 1.74717C5.27607 1.74264 5.27607 1.73358 5.27154 1.72905C5.26701 1.71999 5.26248 1.71093 5.25342 1.70187C5.24889 1.69281 5.24436 1.68828 5.23983 1.67922C5.2353 1.67016 5.23077 1.66563 5.22624 1.65657C5.22171 1.64751 5.21265 1.63845 5.20812 1.62939C5.20359 1.62486 5.19906 1.62033 5.19453 1.6158C5.18547 1.60674 5.17641 1.59768 5.16735 1.58862C5.16282 1.58409 5.15829 1.57956 5.15376 1.57503C5.1447 1.56597 5.13564 1.55691 5.12205 1.54785C5.11752 1.54332 5.10846 1.53879 5.10393 1.53426C5.09487 1.5252 5.08581 1.52067 5.07675 1.51161C5.06316 1.50255 5.04957 1.49349 5.04051 1.48896C5.03598 1.48443 5.03145 1.48443 5.02692 1.4799C5.0088 1.47084 4.98615 1.46178 4.96803 1.45272L1.6294 0.0484146C1.31683 -0.082956 0.95896 0.0620046 0.827589 0.374576C0.696219 0.687147 0.841179 1.04502 1.15375 1.17639L4.11638 2.42667V5.19905V5.63846V9.00879V12.0213V15.8265C4.11638 17.0949 5.06769 18.1458 6.29532 18.3044C6.07335 18.6759 5.94198 19.1107 5.94198 19.5728C5.94198 20.9363 7.05183 22.0417 8.41084 22.0417C9.76985 22.0417 10.8797 20.9318 10.8797 19.5728C10.8797 19.1198 10.7574 18.6894 10.5399 18.327H16.0394C15.8219 18.694 15.6996 19.1198 15.6996 19.5728C15.6996 20.9363 16.8095 22.0417 18.1685 22.0417C19.5275 22.0417 20.6374 20.9318 20.6374 19.5728C20.6374 18.2138 19.5275 17.1039 18.1685 17.1039H6.61695C5.91027 17.1039 5.33949 16.5286 5.33949 15.8265V14.1685C5.71095 14.3859 6.15036 14.5128 6.61695 14.5128ZM9.66112 19.5683C9.66112 20.2568 9.0994 20.814 8.41537 20.814C7.73134 20.814 7.16961 20.2523 7.16961 19.5683C7.16961 18.8842 7.73134 18.3225 8.41537 18.3225C9.0994 18.3225 9.66112 18.8797 9.66112 19.5683ZM19.4188 19.5683C19.4188 20.2568 18.8571 20.814 18.173 20.814C17.489 20.814 16.9273 20.2523 16.9273 19.5683C16.9273 18.8842 17.489 18.3225 18.173 18.3225C18.8571 18.3225 19.4188 18.8797 19.4188 19.5683ZM18.7619 13.2897H6.61695C5.91027 13.2897 5.33949 12.7143 5.33949 12.0122V8.99973V5.6294V5.4029L20.0394 7.42782V12.0077C20.0394 12.7189 19.4641 13.2897 18.7619 13.2897Z" fill="#393939"/>
</svg>
