<svg width="12" height="12" viewBox="0 0 12 12" fill="none" xmlns="http://www.w3.org/2000/svg">
<path d="M11.0033 1.72697H8.50662V1.3199C8.50662 0.592105 7.91452 0 7.18672 0H4.81337C4.08557 0 3.49347 0.592105 3.49347 1.3199V1.72697H0.996756C0.811723 1.72697 0.663696 1.875 0.663696 2.06003C0.663696 2.24507 0.811723 2.39309 0.996756 2.39309H1.59873V10.2188C1.59873 11.2007 2.39807 12 3.37998 12H8.62011C9.60202 12 10.4014 11.2007 10.4014 10.2188V2.39309H11.0033C11.1884 2.39309 11.3364 2.24507 11.3364 2.06003C11.3364 1.875 11.1884 1.72697 11.0033 1.72697ZM4.15958 1.3199C4.15958 0.959704 4.45317 0.666118 4.81337 0.666118H7.18672C7.54692 0.666118 7.84051 0.959704 7.84051 1.3199V1.72697H4.15958V1.3199ZM9.73524 10.2188C9.73524 10.8331 9.23442 11.3339 8.62011 11.3339H3.37998C2.76567 11.3339 2.26485 10.8331 2.26485 10.2188V2.39309H9.73771V10.2188H9.73524Z" fill="#8E8E8E"/>
<path d="M6.00005 10.1398C6.18508 10.1398 6.33311 9.99174 6.33311 9.8067V3.92019C6.33311 3.73515 6.18508 3.58713 6.00005 3.58713C5.81502 3.58713 5.66699 3.73515 5.66699 3.92019V9.80424C5.66699 9.98927 5.81502 10.1398 6.00005 10.1398Z" fill="#8E8E8E"/>
<path d="M3.82647 9.77221C4.0115 9.77221 4.15953 9.62418 4.15953 9.43915V4.28536C4.15953 4.10033 4.0115 3.9523 3.82647 3.9523C3.64143 3.9523 3.49341 4.10033 3.49341 4.28536V9.43915C3.49341 9.62418 3.6439 9.77221 3.82647 9.77221Z" fill="#8E8E8E"/>
<path d="M8.17351 9.77221C8.35855 9.77221 8.50657 9.62418 8.50657 9.43915V4.28536C8.50657 4.10033 8.35855 3.9523 8.17351 3.9523C7.98848 3.9523 7.84045 4.10033 7.84045 4.28536V9.43915C7.84045 9.62418 7.98848 9.77221 8.17351 9.77221Z" fill="#8E8E8E"/>
</svg>
