<svg width="40" height="40" viewBox="0 0 40 40" fill="none" xmlns="http://www.w3.org/2000/svg">
<g clip-path="url(#clip0_375_1363)">
<path d="M15.4301 27.1236C17.3546 23.7902 14.9489 19.6236 11.1 19.6236H1.97852C1.11108 19.6236 0.124684 20.0122 0.17904 20.8779C0.566206 27.0079 3.81205 32.5717 8.88414 35.9555C9.25112 36.2004 9.71865 36.3031 10.1856 36.2054C10.1858 36.2053 10.1861 36.2055 10.1861 36.2057C10.1862 36.206 10.1865 36.206 10.1866 36.2057L15.4301 27.1236Z" fill="#FFA000"/>
<path d="M10.1864 3.04158C10.1863 3.04143 10.186 3.04142 10.1859 3.04154C10.1858 3.04158 10.1857 3.04164 10.1857 3.04163C9.73716 2.94763 9.26499 3.03747 8.88414 3.29167C3.81655 6.67286 0.566505 12.2342 0.17904 18.3693C0.124684 19.235 1.11108 19.6236 1.97852 19.6236H13.6904C16.3881 19.6236 18.0741 16.7033 16.7252 14.3671L10.1864 3.04158Z" fill="#FFA000"/>
<path d="M28.6551 4.21719C29.0873 3.46866 29.2452 2.42279 28.471 2.03851C22.9967 -0.678537 16.5284 -0.680633 11.0497 2.03851C10.2753 2.42257 10.4333 3.46867 10.8655 4.21724L15.4301 12.1235C17.3546 15.4569 22.1658 15.4569 24.0903 12.1236L28.6551 4.21719Z" fill="#FFA000"/>
<path d="M10.8655 35.0299C10.4333 35.7785 10.2753 36.8246 11.0497 37.2087C16.5236 39.9254 22.9922 39.9278 28.471 37.2087C29.3582 36.7685 29.6846 35.6636 29.1896 34.8057L20.8772 20.4089C20.7977 20.2711 20.6832 20.1566 20.5454 20.077C20.1117 19.8266 19.5572 19.9752 19.3068 20.4089L10.8655 35.0299Z" fill="#FFA000"/>
<path d="M39.3413 18.3693C38.9544 12.239 35.7082 6.67555 30.6365 3.29167C30.2557 3.03751 29.7836 2.94766 29.3348 3.04158C29.3347 3.04161 29.3345 3.04138 29.3344 3.04124C29.3343 3.04109 29.3341 3.0412 29.334 3.04135L20.2135 18.8384C19.9631 19.2721 20.1117 19.8266 20.5454 20.077C20.6832 20.1566 20.8396 20.1985 20.9988 20.1985H37.6195C38.6127 20.1985 39.4038 19.3589 39.3413 18.3693Z" fill="#FFA000"/>
<path d="M16.7972 19.6236C16.186 19.6236 15.6212 19.9497 15.3156 20.479L8.23098 32.7501C7.59866 33.8453 7.83219 35.2537 8.8842 35.9555C9.25127 36.2005 9.71893 36.3032 10.1857 36.2053C10.1858 36.2053 10.1859 36.2053 10.1859 36.2054C10.1861 36.2056 10.1864 36.2056 10.1866 36.2054L18.2787 22.1897C18.9371 21.0492 18.1141 19.6236 16.7972 19.6236Z" fill="#F57C00"/>
<path d="M10.1864 3.04158C10.1863 3.04143 10.186 3.04142 10.1859 3.04154C10.1858 3.04158 10.1857 3.04164 10.1857 3.04163C9.73716 2.94763 9.26499 3.03747 8.88414 3.29167C8.58296 3.49246 8.49803 3.89403 8.67902 4.20751L12.3644 10.5908C14.2889 13.9242 11.8833 18.0908 8.03429 18.0908H0.480232C0.322591 18.0908 0.189189 18.212 0.17904 18.3693C0.124684 19.235 1.11108 19.6236 1.97852 19.6236H13.6904C16.3881 19.6236 18.0741 16.7033 16.7252 14.3671L10.1864 3.04158Z" fill="#F57C00"/>
<path d="M28.471 2.03853C27.8162 1.71371 27.1492 1.42831 26.4715 1.18119C26.3318 1.13024 26.194 1.30413 26.2461 1.44344C26.2612 1.48389 26.2563 1.5293 26.2347 1.56669L18.2787 15.3469C17.9731 15.8762 17.9731 16.5283 18.2787 17.0576C18.9371 18.1981 20.5832 18.1981 21.2417 17.0576L28.6552 4.21722C29.0873 3.46868 29.2452 2.42281 28.471 2.03853Z" fill="#F57C00"/>
<path d="M-nan -nanL29.1896 34.806L20.8772 20.4089C20.7977 20.2711 20.6832 20.1566 20.5454 20.077C20.1117 19.8266 19.5572 19.9752 19.3068 20.4089L19.2793 20.4564C19.1075 20.7539 19.1075 21.1205 19.2793 21.418L26.124 33.2729C26.619 34.1305 26.2923 35.2354 25.4054 35.6759C20.8282 37.9476 15.7164 38.2471 11.2087 36.9347C10.9702 36.8653 10.8272 37.0984 11.0497 37.2087C13.7709 38.5594 16.7018 39.2442 19.7605 39.2442C22.8192 39.2442 25.7497 38.5594 28.471 37.2087C29.3582 36.7685 29.6846 35.6636 29.1896 34.806L-nan -nanZ" fill="#F57C00"/>
<path d="M39.3413 18.3693C38.9544 12.239 35.7082 6.67555 30.6365 3.29167C30.2557 3.03751 29.7836 2.94767 29.3348 3.04158C29.3347 3.04161 29.3345 3.04138 29.3344 3.04124C29.3343 3.04109 29.3341 3.0412 29.334 3.04135L29.3235 3.05963C29.3195 3.06655 29.321 3.07536 29.3271 3.08051C33.4706 6.5768 35.9412 11.5393 36.2757 16.8365C36.3379 17.8258 35.5471 18.6654 34.5536 18.6654H20.7185C20.4679 18.6654 20.2363 18.7991 20.111 19.0161C19.9172 19.3516 20.0322 19.7807 20.3677 19.9744L20.5454 20.077C20.6832 20.1566 20.8396 20.1985 20.9988 20.1985H37.6195C38.6127 20.1985 39.4038 19.3589 39.3413 18.3693Z" fill="#F57C00"/>
<path d="M6.69302 19.6236C5.13566 19.6236 3.54126 20.9022 3.81028 22.4362C3.97317 23.3665 4.51125 24.1908 4.82715 25.0586C5.14874 25.9422 5.26912 26.9184 5.73383 27.7214C6.20305 28.5323 6.99085 29.1228 7.58972 29.8357C8.19038 30.5505 8.63623 31.4284 9.35098 32.0288C10.5429 33.03 12.4466 32.2909 13.2249 30.9428L15.43 27.1236C17.3545 23.7903 14.9489 19.6236 11.0998 19.6236H6.69302Z" fill="#FFE082"/>
<path d="M16.7971 19.6236C16.186 19.6236 15.6212 19.9497 15.3156 20.479L9.21931 31.0385C9.0307 31.3652 9.06218 31.7861 9.351 32.0288C10.5429 33.03 12.4466 32.2909 13.225 30.9428L18.2786 22.1896C18.9371 21.0492 18.114 19.6236 16.7971 19.6236Z" fill="#FFCA28"/>
<path d="M13.2256 30.9416C12.4467 32.2908 12.7565 34.3119 14.2204 34.8446C15.0884 35.1605 16.07 35.1087 17.0006 35.2716C17.9055 35.4303 18.8101 35.8172 19.7602 35.8172C20.7106 35.8172 21.6152 35.4303 22.5201 35.2716C23.4504 35.1087 24.4322 35.1605 25.3003 34.8446C25.7366 34.6856 26.1327 34.441 26.5184 34.1778C27.1831 33.7248 27.3894 32.8387 26.9873 32.142C26.3046 30.9595 25.2168 29.0753 24.0903 27.124C22.1659 23.7906 17.3545 23.7904 15.4299 27.1237L13.2256 30.9416Z" fill="#FFE082"/>
<path d="M-nan -nanL19.7602 19.6236L19.069 20.8209C18.822 21.2486 18.822 21.7756 19.069 22.2033L23.2293 29.4092C24.0144 30.769 23.71 32.7745 22.2347 33.3118C21.3666 33.6278 20.3848 33.5759 19.4541 33.7388C18.5492 33.8972 17.6447 34.2844 16.6946 34.2844C15.7445 34.2844 14.8399 33.8972 13.935 33.7388C13.5061 33.6638 13.251 34.3618 13.632 34.5727C13.8214 34.6775 14.0165 34.7704 14.2204 34.8446C15.0884 35.1605 16.0702 35.1087 17.0009 35.2719C17.9055 35.4303 18.8101 35.8172 19.7604 35.8172C20.7105 35.8172 21.6151 35.4303 22.52 35.2719C23.4504 35.1087 24.4322 35.1605 25.3003 34.8446C25.7365 34.6859 26.1327 34.441 26.5183 34.1781C27.1831 33.7248 27.3897 32.8387 26.9876 32.1423C25.0332 28.7572 19.7602 19.6236 19.7602 19.6236L-nan -nanZ" fill="#FFCA28"/>
<path d="M13.2249 8.30443C12.4466 6.95634 10.5429 6.21721 9.35098 7.21842C8.63593 7.81878 8.19008 8.69671 7.58972 9.41176C6.99085 10.1247 6.20275 10.7152 5.73383 11.5258C5.26912 12.3288 5.14874 13.3053 4.82715 14.1886C4.51125 15.0567 3.97317 15.8807 3.81028 16.811C3.54126 18.345 5.13566 19.6236 6.69302 19.6236H11.0998C14.9489 19.6236 17.3545 15.4569 15.43 12.1236L13.2249 8.30443Z" fill="#FFE082"/>
<path d="M12.2821 6.67134C12.0244 6.22493 11.4505 6.06597 10.984 6.28536C10.5088 6.50888 10.3394 7.08301 10.602 7.53785L15.3672 15.7915C15.9571 16.8134 15.2196 18.0908 14.0395 18.0908H4.56919C4.13948 18.0908 3.8056 18.4531 3.83904 18.8815C3.87092 19.29 4.20536 19.6236 4.6151 19.6236H11.0999C14.9489 19.6236 17.3545 15.4569 15.43 12.1236L12.2821 6.67134Z" fill="#FFCA28"/>
<path d="M-nan -nanL25.3003 4.40258C24.4322 4.08668 23.4504 4.13848 22.5201 3.97559C21.6152 3.81689 20.7106 3.43002 19.7602 3.43002C18.8101 3.43002 17.9055 3.81689 17.0006 3.97559C16.0703 4.13848 15.0884 4.08668 14.2204 4.40258C13.3371 4.72414 12.6192 5.39778 11.8162 5.86249C11.816 5.86257 11.8158 5.86262 11.8157 5.86276C11.8156 5.8629 11.8157 5.86298 11.8158 5.86312L15.4301 12.1235C17.3546 15.4569 22.1659 15.4569 24.0904 12.1236L27.7049 5.86322C27.705 5.86304 27.7049 5.86281 27.7048 5.86266C27.7047 5.86263 27.7047 5.8626 27.7047 5.86258C26.9016 5.39786 26.1836 4.72416 25.3003 4.40258L-nan -nanZ" fill="#FFE082"/>
<path d="M27.7048 5.86263C27.7047 5.8626 27.7047 5.86258 27.7047 5.86256C26.9016 5.39784 26.1836 4.72414 25.3003 4.40255C24.9458 4.27346 24.5655 4.45783 24.3769 4.78453L18.2787 15.3469C17.9731 15.8762 17.9731 16.5283 18.2787 17.0576C18.9371 18.1981 20.5832 18.1981 21.2417 17.0576L27.7048 5.8632C27.705 5.86301 27.7049 5.86278 27.7048 5.86263Z" fill="#FFCA28"/>
<path d="M34.4866 21.4539C34.4866 20.4431 35.6279 19.5034 35.7139 18.4962C35.763 17.9243 35.8062 17.3581 35.7103 16.811C35.5474 15.8807 35.0091 15.0564 34.6932 14.1886C34.3716 13.305 34.2515 12.3288 33.7868 11.5255C33.3176 10.7149 32.5298 10.1244 31.9309 9.41146C31.3302 8.69641 30.8844 7.81878 30.1693 7.21842C28.9775 6.21691 27.0737 6.95628 26.2954 8.30444L22.214 15.3735C21.1234 17.2625 22.4866 19.6236 24.6677 19.6236C26.2326 19.6236 27.5011 20.8921 27.5011 22.457V23.4605C27.5008 24.245 28.1368 24.8807 28.9213 24.8807C29.8286 24.8807 30.4289 24.1837 30.4289 23.4168V22.8895C30.4289 22.3859 30.8374 21.9777 31.341 21.9777C31.8447 21.9777 32.2531 22.3859 32.2531 22.8895V26.9866C32.2531 27.6035 32.7531 28.1035 33.3697 28.1035C33.9865 28.1035 34.4866 27.6035 34.4866 26.9866V21.4539Z" fill="#FFE082"/>
<path d="M-nan -nanL35.7103 16.811C35.5474 15.8807 35.0091 15.0564 34.6932 14.1886C34.3716 13.305 34.2515 12.3288 33.7868 11.5255C33.3176 10.7149 32.5298 10.1244 31.9309 9.41146C31.3302 8.69641 30.8844 7.81878 30.1693 7.21842C29.5022 6.65778 28.635 6.3698 27.8618 5.95059C27.7746 5.90332 27.6648 5.93258 27.6152 6.01849C27.5769 6.08498 27.5853 6.16835 27.6345 6.22727C28.0718 6.75088 28.4275 7.35772 28.865 7.87866C29.4639 8.59161 30.252 9.18209 30.7209 9.99266C31.1856 10.7957 31.306 11.7722 31.6276 12.6555C31.9435 13.5236 32.4819 14.3476 32.6447 15.2782C32.6462 15.2872 32.6477 15.2962 32.6492 15.3055C32.893 16.767 31.742 18.0908 30.2604 18.0908H21.0877C20.8139 18.0908 20.561 18.2369 20.424 18.474C20.129 18.9849 20.4977 19.6236 21.0877 19.6236H30.1909C30.8703 19.6236 31.421 20.1743 31.421 20.8536C31.421 21.4918 32.0709 22.0485 32.2259 22.6675C32.2436 22.7386 32.2531 22.8129 32.2531 22.8895V26.9869C32.2531 27.6038 32.7531 28.1035 33.3697 28.1035C33.9865 28.1035 34.4866 27.6035 34.4866 26.9869V21.4539C34.4866 20.443 35.6279 19.5034 35.7139 18.4962C35.763 17.9243 35.8062 17.3581 35.7103 16.811L-nan -nanZ" fill="#FFCA28"/>
<path d="M-nan -nanL20.3288 30.67C20.3288 31.9285 19.3086 32.9483 18.0504 32.9483C16.7919 32.9483 15.7717 31.9285 15.7717 30.67C15.7717 29.4114 16.7919 28.3916 18.0504 28.3916C19.3086 28.3916 20.3288 29.4114 20.3288 30.67L-nan -nanZ" fill="#EF5350"/>
<path d="M13.2248 27.0567C13.2248 28.3152 12.2049 29.3354 10.9464 29.3354C9.68787 29.3354 8.66801 28.3152 8.66801 27.0567C8.66801 25.7985 9.68787 24.7783 10.9464 24.7783C12.2049 24.7783 13.2248 25.7985 13.2248 27.0567Z" fill="#EF5350"/>
<path d="M15.0998 15.3205C15.0998 16.579 14.0796 17.5991 12.8211 17.5991C11.5629 17.5991 10.5427 16.579 10.5427 15.3205C10.5427 14.0622 11.5629 13.0421 12.8211 13.0421C14.0796 13.0421 15.0998 14.0622 15.0998 15.3205Z" fill="#EF5350"/>
<path d="M19.8838 7.59961C19.8838 8.85812 18.8637 9.87829 17.6052 9.87829C16.3466 9.87829 15.3268 8.85812 15.3268 7.59961C15.3268 6.34139 16.3466 5.32123 17.6052 5.32123C18.8637 5.32123 19.8838 6.34139 19.8838 7.59961Z" fill="#EF5350"/>
<path d="M29.8927 10.4199C29.8927 11.0491 29.3824 11.5593 28.7533 11.5593C28.1242 11.5593 27.614 11.0491 27.614 10.4199C27.614 9.79054 28.1242 9.28061 28.7533 9.28061C29.3824 9.28061 29.8927 9.79054 29.8927 10.4199Z" fill="#FF6F00"/>
<path d="M26.2261 16.3368C26.2261 16.9659 25.7161 17.4761 25.0867 17.4761C24.4576 17.4761 23.9477 16.9659 23.9477 16.3368C23.9477 15.7077 24.4576 15.1974 25.0867 15.1974C25.7161 15.1974 26.2261 15.7077 26.2261 16.3368Z" fill="#FF6F00"/>
<path d="M24.8894 7.00193C24.8894 7.63133 24.3795 8.14127 23.7501 8.14127C23.121 8.14127 22.611 7.63133 22.611 7.00193C22.611 6.37282 23.121 5.86288 23.7501 5.86288C24.3795 5.86288 24.8894 6.37282 24.8894 7.00193Z" fill="#FF6F00"/>
<path d="M20.8995 13.3056C20.8995 13.9347 20.3896 14.4446 19.7602 14.4446C19.1311 14.4446 18.6211 13.9347 18.6211 13.3056C18.6211 12.6762 19.1311 12.1662 19.7602 12.1662C20.3896 12.1662 20.8995 12.6762 20.8995 13.3056Z" fill="#FF6F00"/>
<path d="M8.13319 16.7967C8.13319 17.4258 7.62326 17.9357 6.99385 17.9357C6.36475 17.9357 5.85481 17.4258 5.85481 16.7967C5.85481 16.1673 6.36475 15.6573 6.99385 15.6573C7.62326 15.6573 8.13319 16.1673 8.13319 16.7967Z" fill="#FF6F00"/>
<path d="M-nan -nanL14.6764 22.2008C14.6764 22.8302 14.1662 23.3401 13.5371 23.3401C12.9077 23.3401 12.3977 22.8302 12.3977 22.2008C12.3977 21.5717 12.9077 21.0618 13.5371 21.0618C14.1662 21.0618 14.6764 21.5717 14.6764 22.2008L-nan -nanZ" fill="#FF6F00"/>
<path d="M12.039 9.5585C11.8626 8.95454 11.2299 8.6081 10.6259 8.78476C10.022 8.96113 9.67554 9.59383 9.85191 10.1978C10.0286 10.8017 10.6613 11.1482 11.2652 10.9715C11.8692 10.7952 12.2156 10.1625 12.039 9.5585Z" fill="#FF6F00"/>
<path d="M-nan -nanL8.54341 23.0413C8.54341 23.6707 8.03348 24.1807 7.40437 24.1807C6.77496 24.1807 6.26503 23.6707 6.26503 23.0413C6.26503 22.4122 6.77496 21.902 7.40437 21.902C8.03348 21.902 8.54341 22.4122 8.54341 23.0413L-nan -nanZ" fill="#FF6F00"/>
<path d="M-nan -nanL24.5894 31.8093C24.5894 32.4384 24.0792 32.9487 23.4501 32.9487C22.821 32.9487 22.3107 32.4384 22.3107 31.8093C22.3107 31.1799 22.821 30.67 23.4501 30.67C24.0792 30.67 24.5894 31.1799 24.5894 31.8093L-nan -nanZ" fill="#FF6F00"/>
<path d="M20.8995 25.32C20.8995 25.9491 20.3896 26.4593 19.7602 26.4593C19.1311 26.4593 18.6211 25.9491 18.6211 25.32C18.6211 24.6906 19.1311 24.1807 19.7602 24.1807C20.3896 24.1807 20.8995 24.6906 20.8995 25.32Z" fill="#FF6F00"/>
<path d="M32.9681 15.4738C32.9681 16.7323 31.9479 17.7525 30.6897 17.7525C29.4312 17.7525 28.411 16.7323 28.411 15.4738C28.411 14.2156 29.4312 13.1954 30.6897 13.1954C31.9479 13.1954 32.9681 14.2156 32.9681 15.4738Z" fill="#EF5350"/>
<path d="M19.5235 28.932C19.1853 28.6451 18.796 29.0769 18.796 29.5205C18.796 30.0878 18.591 30.5994 18.2559 30.9935C17.6283 31.7316 17.0816 32.9484 18.0504 32.9484C19.309 32.9484 20.3288 31.9285 20.3288 30.67C20.3288 29.9734 20.0162 29.3499 19.5235 28.932Z" fill="#D32F2F"/>
<path d="M-nan -nanL11.4207 24.828C11.5937 25.1493 11.6919 25.5167 11.6919 25.9072C11.6919 27.1654 10.6718 28.1856 9.41356 28.1856C9.22495 28.1856 9.08612 28.3859 9.20811 28.5298C9.62601 29.0226 10.2495 29.3354 10.9464 29.3354C12.2049 29.3354 13.2247 28.3152 13.2247 27.0567C13.2247 25.9611 12.4513 25.0463 11.4207 24.828L-nan -nanZ" fill="#D32F2F"/>
<path d="M14.2943 13.5825C13.9558 13.2955 13.567 13.7272 13.567 14.1709C13.567 15.4294 12.5468 16.4493 11.2883 16.4493C11.0997 16.4493 10.9609 16.6496 11.0829 16.7935C11.5008 17.2863 12.1245 17.5991 12.8211 17.5991C14.0796 17.5991 15.0998 16.579 15.0998 15.3204C15.0998 14.6238 14.787 14.0003 14.2943 13.5825Z" fill="#D32F2F"/>
<path d="M19.0783 5.86163C18.7399 5.57464 18.351 6.00633 18.351 6.45007C18.351 7.70828 17.3309 8.72845 16.0724 8.72845C15.8837 8.72845 15.7449 8.9288 15.8669 9.07265C16.2849 9.56548 16.9086 9.87827 17.6052 9.87827C18.8637 9.87827 19.8838 8.8581 19.8838 7.59959C19.8838 6.90298 19.5711 6.27949 19.0783 5.86163Z" fill="#D32F2F"/>
<path d="M-nan -nanL31.1637 13.2451C31.3368 13.5664 31.4353 13.9338 31.4353 14.3242C31.4353 15.5825 30.4151 16.6026 29.1566 16.6026C28.968 16.6026 28.8292 16.8029 28.9512 16.9468C29.3692 17.4397 29.9929 17.7524 30.6897 17.7524C31.9479 17.7524 32.9681 16.7323 32.9681 15.4738C32.9681 14.3781 32.1947 13.4634 31.1637 13.2451L-nan -nanZ" fill="#D32F2F"/>
</g>
<defs>
<clipPath id="clip0_375_1363">
<rect width="39.2472" height="39.2472" fill="white" transform="translate(0.0991211)"/>
</clipPath>
</defs>
</svg>
