<svg width="15" height="16" viewBox="0 0 15 16" fill="none" xmlns="http://www.w3.org/2000/svg">
<g clip-path="url(#clip0_375_1515)">
<path d="M10.5884 5.84383C10.5881 5.93333 10.6243 6.01403 10.6827 6.07248C10.7411 6.13092 10.8218 6.16711 10.911 6.16711C11.0896 6.167 11.2344 6.02214 11.2344 5.8436L11.2355 4.24888C11.2355 4.20642 11.2272 4.16452 11.2108 4.1248C11.1782 4.0466 11.1165 3.98348 11.0385 3.9506C11.0376 3.95015 11.0369 3.95037 11.0362 3.95015C11.0021 3.9361 10.9658 3.9304 10.9297 3.92857C10.9238 3.92834 10.9189 3.92526 10.9127 3.92503L10.9121 3.92526L9.35236 3.92595C9.17403 3.92583 9.02924 4.07069 9.02924 4.24923C9.02912 4.33861 9.06518 4.41943 9.12359 4.47787C9.18213 4.53644 9.26279 4.57239 9.35213 4.57228L10.1322 4.57194L4.39055 10.316L4.39089 9.536C4.391 9.35758 4.24644 9.21294 4.068 9.21294C3.88944 9.21306 3.74465 9.35792 3.74476 9.53634L3.74419 11.0972C3.74419 11.1866 3.78036 11.2674 3.83878 11.3258C3.8972 11.3842 3.97786 11.4204 4.0672 11.4203L5.66146 11.4193C5.83991 11.4193 5.98481 11.2743 5.9847 11.0959C5.98481 10.9175 5.84025 10.7728 5.66181 10.7728L4.84739 10.7733L10.5889 5.02935L10.5884 5.84383Z" fill="#393939"/>
</g>
<defs>
<clipPath id="clip0_375_1515">
<rect width="10.3294" height="10.3294" fill="white" transform="matrix(0.70693 0.707283 -0.70693 0.707283 7.53745 0.414932)"/>
</clipPath>
</defs>
</svg>
