<svg width="10" height="10" viewBox="0 0 10 10" fill="none" xmlns="http://www.w3.org/2000/svg">
<g clip-path="url(#clip0_375_1511)">
<path d="M9.12109 0H0.878899C0.394279 0 -7.62939e-06 0.394287 -7.62939e-06 0.878906V9.12109C-7.62939e-06 9.60571 0.394279 10 0.878899 10H9.12109C9.60571 10 9.99999 9.60571 9.99999 9.12109V0.878906C9.99999 0.394287 9.60571 0 9.12109 0ZM9.41405 9.12109C9.41405 9.28261 9.2826 9.41406 9.12109 9.41406H0.878899C0.717384 9.41406 0.58593 9.28261 0.58593 9.12109V0.878906C0.58593 0.717392 0.717384 0.585938 0.878899 0.585938H9.12109C9.2826 0.585938 9.41405 0.717392 9.41405 0.878906V9.12109Z" fill="#393939"/>
<path d="M8.37893 2.33696C7.39672 1.60034 6.22828 1.21094 5.00002 1.21094C3.77177 1.21094 2.60332 1.60034 1.62112 2.33696C1.55894 2.38365 1.51781 2.45308 1.50683 2.53006C1.49592 2.60704 1.51598 2.68524 1.56267 2.74742L3.10923 4.80492C3.16683 4.88152 3.25472 4.92188 3.34368 4.92188C3.40479 4.92188 3.46651 4.9028 3.51923 4.86328C3.94968 4.54048 4.46169 4.36981 5.00002 4.36981C5.53828 4.36981 6.05036 4.54048 6.48081 4.86328C6.61013 4.96033 6.79362 4.93416 6.89074 4.80492L8.43729 2.74742C8.48406 2.68524 8.50413 2.60704 8.49314 2.53006C8.48223 2.45316 8.44111 2.38365 8.37893 2.33696ZM6.58999 4.22989C6.19479 3.98804 5.75442 3.84155 5.29299 3.79791V2.90497C5.29299 2.74315 5.16184 2.612 5.00002 2.612C4.8382 2.612 4.70705 2.74315 4.70705 2.90497V3.79791C4.24563 3.84155 3.80526 3.98804 3.41006 4.22989L2.21232 2.63641C3.04003 2.08626 3.99783 1.79688 5.00002 1.79688C6.00222 1.79688 6.96001 2.08626 7.78773 2.63641L6.58999 4.22989Z" fill="#393939"/>
</g>
<defs>
<clipPath id="clip0_375_1511">
<rect width="10" height="10" fill="white"/>
</clipPath>
</defs>
</svg>
